<mxfile host="app.diagrams.net" modified="2022-03-09T21:55:23.379Z" agent="5.0 (Windows)" etag="7FwAKkjNjjm-dL6RzkHL" version="17.0.0" type="github">
  <diagram id="q9LkjGjWb3xOaKHyB-Pv" name="Page-1">
    <mxGraphModel dx="1240" dy="643" grid="1" gridSize="10" guides="1" tooltips="1" connect="1" arrows="1" fold="1" page="1" pageScale="1" pageWidth="850" pageHeight="1100" math="0" shadow="0">
      <root>
        <mxCell id="0" />
        <mxCell id="1" parent="0" />
        <mxCell id="3kPO00_vXv5jlIYTOTkk-1" style="edgeStyle=orthogonalEdgeStyle;rounded=0;orthogonalLoop=1;jettySize=auto;html=1;exitX=1;exitY=0.5;exitDx=0;exitDy=0;entryX=0;entryY=0.5;entryDx=0;entryDy=0;fontSize=16;strokeWidth=3;" edge="1" parent="1" source="dm_kBzCv7fK3MoQjF0nc-2" target="dm_kBzCv7fK3MoQjF0nc-3">
          <mxGeometry relative="1" as="geometry" />
        </mxCell>
        <mxCell id="dm_kBzCv7fK3MoQjF0nc-2" value="Player" style="rounded=1;whiteSpace=wrap;html=1;fontSize=24;strokeWidth=3;" parent="1" vertex="1">
          <mxGeometry x="80" y="436" width="120" height="60" as="geometry" />
        </mxCell>
        <mxCell id="3kPO00_vXv5jlIYTOTkk-5" style="edgeStyle=orthogonalEdgeStyle;rounded=0;orthogonalLoop=1;jettySize=auto;html=1;exitX=0.5;exitY=0;exitDx=0;exitDy=0;fontSize=16;strokeWidth=3;" edge="1" parent="1" source="dm_kBzCv7fK3MoQjF0nc-3" target="3kPO00_vXv5jlIYTOTkk-3">
          <mxGeometry relative="1" as="geometry" />
        </mxCell>
        <mxCell id="3kPO00_vXv5jlIYTOTkk-7" value="Player Choices" style="edgeLabel;html=1;align=center;verticalAlign=middle;resizable=0;points=[];fontSize=16;" vertex="1" connectable="0" parent="3kPO00_vXv5jlIYTOTkk-5">
          <mxGeometry x="-0.3368" y="-2" relative="1" as="geometry">
            <mxPoint x="-2" y="12" as="offset" />
          </mxGeometry>
        </mxCell>
        <mxCell id="3kPO00_vXv5jlIYTOTkk-6" value="Player Choice" style="edgeStyle=orthogonalEdgeStyle;rounded=0;orthogonalLoop=1;jettySize=auto;html=1;exitX=0.5;exitY=1;exitDx=0;exitDy=0;fontSize=16;strokeWidth=3;" edge="1" parent="1" source="dm_kBzCv7fK3MoQjF0nc-3" target="3kPO00_vXv5jlIYTOTkk-4">
          <mxGeometry x="-0.4842" relative="1" as="geometry">
            <mxPoint as="offset" />
          </mxGeometry>
        </mxCell>
        <mxCell id="dm_kBzCv7fK3MoQjF0nc-3" value="&lt;div&gt;1. Start&lt;/div&gt;&lt;div&gt;Game&lt;/div&gt;" style="ellipse;whiteSpace=wrap;html=1;aspect=fixed;fontSize=24;strokeWidth=3;" parent="1" vertex="1">
          <mxGeometry x="280" y="391" width="150" height="150" as="geometry" />
        </mxCell>
        <mxCell id="3kPO00_vXv5jlIYTOTkk-2" value="&lt;div&gt;Start&lt;/div&gt;&lt;div&gt;Game&lt;/div&gt;" style="text;html=1;align=center;verticalAlign=middle;resizable=0;points=[];autosize=1;strokeColor=none;fillColor=none;fontSize=16;" vertex="1" parent="1">
          <mxGeometry x="207" y="445" width="60" height="40" as="geometry" />
        </mxCell>
        <mxCell id="3kPO00_vXv5jlIYTOTkk-9" style="edgeStyle=orthogonalEdgeStyle;rounded=0;orthogonalLoop=1;jettySize=auto;html=1;exitX=1;exitY=0.5;exitDx=0;exitDy=0;entryX=0;entryY=0.5;entryDx=0;entryDy=0;fontSize=16;strokeWidth=3;" edge="1" parent="1" source="3kPO00_vXv5jlIYTOTkk-3" target="3kPO00_vXv5jlIYTOTkk-8">
          <mxGeometry relative="1" as="geometry" />
        </mxCell>
        <mxCell id="3kPO00_vXv5jlIYTOTkk-3" value="&lt;div&gt;2. New&lt;/div&gt;&lt;div&gt;Game&lt;br&gt;&lt;/div&gt;" style="ellipse;whiteSpace=wrap;html=1;aspect=fixed;fontSize=24;strokeWidth=3;" vertex="1" parent="1">
          <mxGeometry x="440" y="241" width="150" height="150" as="geometry" />
        </mxCell>
        <mxCell id="3kPO00_vXv5jlIYTOTkk-10" style="edgeStyle=orthogonalEdgeStyle;rounded=0;orthogonalLoop=1;jettySize=auto;html=1;exitX=1;exitY=0.5;exitDx=0;exitDy=0;entryX=0;entryY=0.5;entryDx=0;entryDy=0;fontSize=16;strokeWidth=3;" edge="1" parent="1" source="3kPO00_vXv5jlIYTOTkk-4" target="3kPO00_vXv5jlIYTOTkk-8">
          <mxGeometry relative="1" as="geometry" />
        </mxCell>
        <mxCell id="3kPO00_vXv5jlIYTOTkk-11" value="World Data " style="edgeLabel;html=1;align=center;verticalAlign=middle;resizable=0;points=[];fontSize=16;" vertex="1" connectable="0" parent="3kPO00_vXv5jlIYTOTkk-10">
          <mxGeometry x="0.5088" y="1" relative="1" as="geometry">
            <mxPoint x="-14" y="-5" as="offset" />
          </mxGeometry>
        </mxCell>
        <mxCell id="3kPO00_vXv5jlIYTOTkk-17" style="edgeStyle=orthogonalEdgeStyle;rounded=0;orthogonalLoop=1;jettySize=auto;html=1;exitX=0;exitY=1;exitDx=0;exitDy=0;entryX=0;entryY=0.5;entryDx=0;entryDy=0;fontSize=24;strokeWidth=3;" edge="1" parent="1" source="3kPO00_vXv5jlIYTOTkk-4" target="3kPO00_vXv5jlIYTOTkk-16">
          <mxGeometry relative="1" as="geometry" />
        </mxCell>
        <mxCell id="3kPO00_vXv5jlIYTOTkk-21" value="&lt;div style=&quot;font-size: 16px;&quot;&gt;ask for&lt;/div&gt;&lt;div style=&quot;font-size: 16px;&quot;&gt;saved data&lt;/div&gt;" style="edgeLabel;html=1;align=center;verticalAlign=middle;resizable=0;points=[];fontSize=16;" vertex="1" connectable="0" parent="3kPO00_vXv5jlIYTOTkk-17">
          <mxGeometry x="-0.4689" y="2" relative="1" as="geometry">
            <mxPoint x="-14" y="7" as="offset" />
          </mxGeometry>
        </mxCell>
        <mxCell id="3kPO00_vXv5jlIYTOTkk-4" value="&lt;div&gt;3. Load&lt;/div&gt;&lt;div&gt;Game&lt;/div&gt;" style="ellipse;whiteSpace=wrap;html=1;aspect=fixed;fontSize=24;strokeWidth=3;" vertex="1" parent="1">
          <mxGeometry x="440" y="541" width="150" height="150" as="geometry" />
        </mxCell>
        <mxCell id="3kPO00_vXv5jlIYTOTkk-13" value="Player Positions" style="edgeStyle=orthogonalEdgeStyle;rounded=0;orthogonalLoop=1;jettySize=auto;html=1;exitX=1;exitY=0;exitDx=0;exitDy=0;entryX=0.5;entryY=0;entryDx=0;entryDy=0;fontSize=16;strokeWidth=3;" edge="1" parent="1" source="3kPO00_vXv5jlIYTOTkk-8" target="3kPO00_vXv5jlIYTOTkk-12">
          <mxGeometry x="-0.2888" relative="1" as="geometry">
            <mxPoint as="offset" />
          </mxGeometry>
        </mxCell>
        <mxCell id="3kPO00_vXv5jlIYTOTkk-8" value="&lt;div&gt;4.Render&lt;/div&gt;&lt;div&gt;Game World&lt;br&gt;&lt;/div&gt;" style="ellipse;whiteSpace=wrap;html=1;aspect=fixed;fontSize=24;strokeWidth=3;" vertex="1" parent="1">
          <mxGeometry x="720" y="391" width="150" height="150" as="geometry" />
        </mxCell>
        <mxCell id="3kPO00_vXv5jlIYTOTkk-14" value="confirmation" style="edgeStyle=orthogonalEdgeStyle;rounded=0;orthogonalLoop=1;jettySize=auto;html=1;exitX=0.5;exitY=1;exitDx=0;exitDy=0;entryX=1;entryY=1;entryDx=0;entryDy=0;fontSize=16;strokeWidth=3;" edge="1" parent="1" source="3kPO00_vXv5jlIYTOTkk-12" target="3kPO00_vXv5jlIYTOTkk-8">
          <mxGeometry x="0.2973" relative="1" as="geometry">
            <mxPoint as="offset" />
          </mxGeometry>
        </mxCell>
        <mxCell id="3kPO00_vXv5jlIYTOTkk-12" value="&lt;div&gt;5. Intiation&lt;/div&gt;" style="ellipse;whiteSpace=wrap;html=1;aspect=fixed;fontSize=24;strokeWidth=3;" vertex="1" parent="1">
          <mxGeometry x="950" y="391" width="150" height="150" as="geometry" />
        </mxCell>
        <mxCell id="3kPO00_vXv5jlIYTOTkk-15" style="edgeStyle=orthogonalEdgeStyle;rounded=0;orthogonalLoop=1;jettySize=auto;html=1;exitX=0;exitY=0;exitDx=0;exitDy=0;entryX=0.5;entryY=0;entryDx=0;entryDy=0;fontSize=16;strokeWidth=3;" edge="1" parent="1" source="3kPO00_vXv5jlIYTOTkk-8" target="3kPO00_vXv5jlIYTOTkk-8">
          <mxGeometry relative="1" as="geometry">
            <Array as="points">
              <mxPoint x="742" y="310" />
              <mxPoint x="795" y="310" />
            </Array>
          </mxGeometry>
        </mxCell>
        <mxCell id="3kPO00_vXv5jlIYTOTkk-22" value="&lt;font style=&quot;font-size: 16px&quot;&gt;Fetched Data&lt;/font&gt;" style="edgeStyle=orthogonalEdgeStyle;rounded=0;orthogonalLoop=1;jettySize=auto;html=1;entryX=1;entryY=1;entryDx=0;entryDy=0;fontSize=24;strokeWidth=3;exitX=1;exitY=0.5;exitDx=0;exitDy=0;" edge="1" parent="1" source="3kPO00_vXv5jlIYTOTkk-16" target="3kPO00_vXv5jlIYTOTkk-4">
          <mxGeometry x="0.0623" y="-1" relative="1" as="geometry">
            <mxPoint as="offset" />
          </mxGeometry>
        </mxCell>
        <mxCell id="3kPO00_vXv5jlIYTOTkk-16" value="&lt;font style=&quot;font-size: 24px&quot;&gt;Saved File&lt;br&gt;&lt;/font&gt;" style="shape=partialRectangle;whiteSpace=wrap;html=1;left=0;right=0;fillColor=none;fontSize=16;strokeWidth=3;" vertex="1" parent="1">
          <mxGeometry x="455" y="770" width="120" height="60" as="geometry" />
        </mxCell>
      </root>
    </mxGraphModel>
  </diagram>
</mxfile>
